# xmcd
#
# Track frame offsets:
#	183
#	11775
#	26505
#	40998
#	51735
#	64148
#	73650
#	86975
#	99533
#	112493
#	127010
#	142593
#	156695
#	168815
#	184270
#	196958
#
# Disc length: 2787 seconds
#
# Revision: 0
# Processed by: cddbd v1.4PL0 Copyright (c) Steve Scherf et al.
# Submitted via: audiograbber 1.80.04
#
DISCID=f40ae110
DTITLE=Various Artist - 16 Succès Volume 9
DYEAR=1990
DGENRE=pop
TTITLE0=Henri Garat - Avoir un bon copain
TTITLE1=Albert Prejean - Amusez-vous
TTITLE2=Alibert - Sur le plancher des vaches
TTITLE3=Georges Milton - combine
TTITLE4=Leo Raiter - Rosalie est partie
TTITLE5=Fernandel - Ignace
TTITLE6=Michel Simon - Elle est épatante
TTITLE7=Andreany - Le patre des montagnes
TTITLE8=Suzanne Dehelly - Il a mal aux reins, Tintin
TTITLE9=Ouvrard - Je n'suis pas bien portant
TTITLE10=Ray Ventura - Ca vaut mieux que d'attraper la scarlatine
TTITLE11=Marie Dubas - C'est toujours ca d'pris
TTITLE12=Lyne Clevers - Mandarines
TTITLE13=Fred Adison - Avec les pompiers
TTITLE14=Georgius - Quand les andouilles voleront
TTITLE15=Maurice Chevalier - Quand un vicomte
EXTD=
EXTT0=
EXTT1=
EXTT2=
EXTT3=
EXTT4=
EXTT5=
EXTT6=
EXTT7=
EXTT8=
EXTT9=
EXTT10=
EXTT11=
EXTT12=
EXTT13=
EXTT14=
EXTT15=
PLAYORDER=
